<svg viewBox="0 0 239.67 54.31" xmlns="http://www.w3.org/2000/svg"><g fill="#0f4a65"><path d="m13.91 17.22c-.16-1-.41-3-2.81-3a2.56 2.56 0 0 0 -2.7 2.4c0 1.82.83 2.19 6.34 4.68 5.72 2.57 7.17 5.22 7.17 8.78 0 4.48-2.57 9.41-10.69 9.41-8.87.02-11.06-5.78-11.06-9.72v-1h7.84c0 3.57 2.14 4.23 3.14 4.23a3 3 0 0 0 3-2.94c0-2-1.28-2.53-6-4.52-2.14-.91-7.52-3.06-7.52-8.82s5.59-9 10.73-9a10.93 10.93 0 0 1 8.28 3.48 9.26 9.26 0 0 1 2 6z"/><path d="m33.93 8.27h10.07c5.68 0 7.79.87 9.45 2.24a10.43 10.43 0 0 1 3.55 8.12c0 3.11-1.28 6.38-3.23 8-2.11 1.79-4.18 2.66-9 2.66h-3.4v9.61h-7.44zm7.49 14.17h3.19c1.5 0 4.89 0 4.89-3.69s-3.48-3.6-5.18-3.6h-2.9z"/><path d="m68.56 8.27h17v6.88h-9.5v4.76h9.24v6.88h-9.24v5.26h9.53v6.88h-17z"/><path d="m129.13 27.45a15.72 15.72 0 0 1 -15.49 12.06 15.91 15.91 0 1 1 -.08-31.82 15.68 15.68 0 0 1 15.57 12.22h-8.2a7.94 7.94 0 0 0 -7.42-5.34c-5.26 0-8.2 4.6-8.2 9 0 4.64 3.15 9.11 8.25 9.11 4.88 0 6.87-4.1 7.37-5.18z"/><path d="m185 8.27h10c5.68 0 7.79.87 9.45 2.24a10.43 10.43 0 0 1 3.6 8.12c0 3.11-1.28 6.38-3.23 8-2.11 1.79-4.19 2.66-9 2.66h-3.4v9.61h-7.42zm7.5 14.17h3.19c1.5 0 4.89 0 4.89-3.69s-3.48-3.6-5.18-3.6h-2.9z"/><path d="m231.68 17.22c-.17-1-.42-3-2.82-3a2.55 2.55 0 0 0 -2.69 2.4c0 1.82.82 2.19 6.33 4.68 5.72 2.57 7.17 5.22 7.17 8.78 0 4.48-2.57 9.41-10.69 9.41-8.86 0-11.06-5.8-11.06-9.74v-1h7.79c0 3.56 2.2 4.18 3.19 4.18a3 3 0 0 0 3-2.94c0-2-1.28-2.53-6-4.52-2.16-.87-7.5-3-7.5-8.78s5.59-9 10.73-9a10.93 10.93 0 0 1 8.28 3.48 9.21 9.21 0 0 1 2 6z"/><path d="m156.39 39.19a15.94 15.94 0 0 1 -11.24-4.61 15.7 15.7 0 0 1 -4.68-11.18 15.69 15.69 0 0 1 3.53-9.92 4.07 4.07 0 0 0 4.91-4 16 16 0 0 1 7.48-1.85v7.9a8 8 0 0 0 -5.68 2.32 7.78 7.78 0 0 0 -2.34 5.58 7.77 7.77 0 0 0 2.34 5.57 8 8 0 0 0 5.68 2.32 8 8 0 0 0 5.68-2.32 7.81 7.81 0 0 0 2.33-5.57 7.81 7.81 0 0 0 -2.33-5.58 8.05 8.05 0 0 0 -5.68-2.32v-7.93a15.94 15.94 0 0 1 11.24 4.61 15.74 15.74 0 0 1 4.67 11.19 15.69 15.69 0 0 1 -1.3 6.24 6.66 6.66 0 0 0 -8.94 8.51 16 16 0 0 1 -5.68 1z"/></g><path d="m147.23 9.55a2.43 2.43 0 1 1 -2.43-2.43 2.42 2.42 0 0 1 2.43 2.43z" fill="#1ac0c6"/><path d="m159.86 23.4a3.47 3.47 0 1 1 -3.47-3.47 3.48 3.48 0 0 1 3.47 3.47z" fill="#1ac0c6"/><path d="m168 1.93a1.94 1.94 0 1 1 -2-1.93 1.94 1.94 0 0 1 2 1.93z" fill="#1ac0c6"/><path d="m150.87 44.44a2.78 2.78 0 1 1 -2.77-2.77 2.77 2.77 0 0 1 2.77 2.77z" fill="#1ac0c6"/><path d="m158.12 52a1.74 1.74 0 1 1 -1.73-1.73 1.73 1.73 0 0 1 1.73 1.73z" fill="#1ac0c6"/><path d="m173.05 35.74a4.75 4.75 0 1 1 -4.75-4.74 4.75 4.75 0 0 1 4.75 4.74z" fill="#1ac0c6"/><g fill="#0f4a65"><path d="m5.6 54.21-.82-2.21h-2.89l-.81 2.2h-1.08l2.82-7.42h1.06l2.81 7.42zm-1.1-3.1-.78-2.18c0-.07-.06-.19-.11-.33l-.15-.46-.12-.4c0 .14-.07.29-.11.44s-.09.3-.13.43-.08.24-.11.32l-.78 2.18z"/><path d="m13.67 54.21h-1.24l-3.83-6.06q0 .27 0 .6v.68s0 .48 0 .72v4.06h-1v-7.39h1.33l3.81 6c0-.15 0-.34 0-.56s0-.45 0-.69 0-.48 0-.7v-4.05h1z"/><path d="m24.83 50.5a5.11 5.11 0 0 1 -.22 1.56 3.29 3.29 0 0 1 -.64 1.2 2.8 2.8 0 0 1 -1.07.74 3.85 3.85 0 0 1 -1.49.27 3.93 3.93 0 0 1 -1.52-.27 2.73 2.73 0 0 1 -1.07-.78 3.4 3.4 0 0 1 -.63-1.21 5.45 5.45 0 0 1 -.19-1.52 4.91 4.91 0 0 1 .37-2 2.91 2.91 0 0 1 1.14-1.33 3.65 3.65 0 0 1 1.93-.47 3.52 3.52 0 0 1 1.88.47 2.83 2.83 0 0 1 1.14 1.32 4.81 4.81 0 0 1 .37 2.02zm-5.77 0a4.56 4.56 0 0 0 .25 1.56 2.19 2.19 0 0 0 .77 1 2.64 2.64 0 0 0 2.66 0 2.09 2.09 0 0 0 .75-1 4.33 4.33 0 0 0 .25-1.56 3.57 3.57 0 0 0 -.56-2.13 2 2 0 0 0 -1.76-.77 2.29 2.29 0 0 0 -1.33.35 2 2 0 0 0 -.77 1 4.22 4.22 0 0 0 -.26 1.55z"/><path d="m32.14 46.82v4.78a2.88 2.88 0 0 1 -.32 1.4 2.33 2.33 0 0 1 -1 1 3.42 3.42 0 0 1 -1.63.35 2.88 2.88 0 0 1 -2.12-.74 2.75 2.75 0 0 1 -.73-2v-4.79h1v4.72a2 2 0 0 0 .54 1.46 1.86 1.86 0 0 0 1.39.48 2.15 2.15 0 0 0 1.05-.23 1.42 1.42 0 0 0 .6-.66 2.35 2.35 0 0 0 .19-1v-4.77z"/><path d="m36.48 54.21h-1v-6.5h-2.29v-.89h5.53v.89h-2.24z"/><path d="m41.88 46.82a3.15 3.15 0 0 1 2.09.57 2 2 0 0 1 .66 1.61 2.66 2.66 0 0 1 -.15.9 1.88 1.88 0 0 1 -.49.76 2.31 2.31 0 0 1 -.9.51 4.13 4.13 0 0 1 -1.36.19h-.85v2.84h-1v-7.38zm-.08.87h-.92v2.81h.74a3.32 3.32 0 0 0 1.07-.15 1.24 1.24 0 0 0 .66-.46 1.42 1.42 0 0 0 .22-.84 1.23 1.23 0 0 0 -.43-1 2.18 2.18 0 0 0 -1.34-.36z"/><path d="m52.64 50.5a5.44 5.44 0 0 1 -.22 1.56 3.3 3.3 0 0 1 -.65 1.2 2.76 2.76 0 0 1 -1.06.78 4.33 4.33 0 0 1 -3 0 2.73 2.73 0 0 1 -1.07-.78 3.26 3.26 0 0 1 -.64-1.21 5.45 5.45 0 0 1 -.21-1.56 4.91 4.91 0 0 1 .38-2 2.91 2.91 0 0 1 1.14-1.33 3.65 3.65 0 0 1 1.93-.47 3.54 3.54 0 0 1 1.88.47 2.83 2.83 0 0 1 1.14 1.32 4.81 4.81 0 0 1 .38 2.02zm-5.77 0a4.33 4.33 0 0 0 .25 1.56 2.13 2.13 0 0 0 .77 1 2.28 2.28 0 0 0 1.32.36 2.25 2.25 0 0 0 1.33-.36 2.05 2.05 0 0 0 .76-1 4.57 4.57 0 0 0 .24-1.56 3.57 3.57 0 0 0 -.54-2.13 2 2 0 0 0 -1.76-.77 2.29 2.29 0 0 0 -1.34.4 2 2 0 0 0 -.78 1 4.46 4.46 0 0 0 -.25 1.5z"/><path d="m58.47 52.22a2 2 0 0 1 -.32 1.13 2.06 2.06 0 0 1 -.92.71 3.55 3.55 0 0 1 -1.41.25 6.57 6.57 0 0 1 -.78 0 4.46 4.46 0 0 1 -.69-.13 3.3 3.3 0 0 1 -.58-.2v-.98a7.53 7.53 0 0 0 1 .32 4.22 4.22 0 0 0 1.13.15 2.18 2.18 0 0 0 .86-.14 1.06 1.06 0 0 0 .52-.39 1.12 1.12 0 0 0 0-1.2 1.54 1.54 0 0 0 -.54-.44 7.41 7.41 0 0 0 -1-.43 4.85 4.85 0 0 1 -.76-.35 2.77 2.77 0 0 1 -.6-.45 1.81 1.81 0 0 1 -.38-.59 2.14 2.14 0 0 1 -.14-.79 1.8 1.8 0 0 1 .3-1 1.86 1.86 0 0 1 .84-.66 3.29 3.29 0 0 1 1.26-.23 4.73 4.73 0 0 1 1.09.12 5.23 5.23 0 0 1 1 .31l-.35.77a6.64 6.64 0 0 0 -.86-.28 3.37 3.37 0 0 0 -.9-.12 2 2 0 0 0 -.73.13.93.93 0 0 0 -.6.91 1 1 0 0 0 .16.6 1.49 1.49 0 0 0 .51.43 8.37 8.37 0 0 0 .91.41 6.84 6.84 0 0 1 1.08.51 2.11 2.11 0 0 1 .67.66 1.81 1.81 0 0 1 .23.97z"/><path d="m62.35 54.21h-1v-6.5h-2.29v-.89h5.53v.89h-2.24z"/><path d="m70.14 54.21h-4.93v-.8l2-2c.37-.37.68-.7.92-1a3.36 3.36 0 0 0 .55-.82 1.92 1.92 0 0 0 .19-.87 1.12 1.12 0 0 0 -.34-.88 1.29 1.29 0 0 0 -.9-.3 2.24 2.24 0 0 0 -.91.18 4.45 4.45 0 0 0 -.84.53l-.55-.68a5 5 0 0 1 .65-.45 3.24 3.24 0 0 1 .76-.33 3.36 3.36 0 0 1 .92-.12 2.79 2.79 0 0 1 1.2.24 1.78 1.78 0 0 1 .77.69 1.88 1.88 0 0 1 .28 1 2.53 2.53 0 0 1 -.24 1.1 4.42 4.42 0 0 1 -.66 1q-.43.49-1 1l-1.51 1.56v.05h3.64z"/><path d="m76.38 52.54h-1v1.67h-1v-1.67h-3.52v-.8l3.45-5h1v4.88h1zm-2-.87v-2.61c0-.15 0-.3 0-.44s0-.27 0-.39 0-.22 0-.32q-.09.2-.21.42a3.89 3.89 0 0 1 -.25.4l-2 2.94z"/><path d="m83.41 47.6a2.46 2.46 0 0 0 -1 .21 2 2 0 0 0 -.76.58 2.63 2.63 0 0 0 -.48.91 4.11 4.11 0 0 0 -.17 1.21 4 4 0 0 0 .27 1.55 2.08 2.08 0 0 0 .8 1 2.42 2.42 0 0 0 1.35.35 4.73 4.73 0 0 0 .93-.09 7.13 7.13 0 0 0 .88-.23v.91a4.4 4.4 0 0 1 -.88.24 5.51 5.51 0 0 1 -1.06.08 3.52 3.52 0 0 1 -1.88-.47 2.79 2.79 0 0 1 -1.12-1.32 5 5 0 0 1 -.37-2 5 5 0 0 1 .2-1.53 3.54 3.54 0 0 1 .68-1.2 2.94 2.94 0 0 1 1.11-.8 3.73 3.73 0 0 1 1.51-.28 4.83 4.83 0 0 1 1.08.12 4.7 4.7 0 0 1 1 .33l-.39.86a7.25 7.25 0 0 0 -.79-.29 3.24 3.24 0 0 0 -.91-.14z"/><path d="m93.29 50.5a5.44 5.44 0 0 1 -.22 1.56 3.3 3.3 0 0 1 -.65 1.2 2.76 2.76 0 0 1 -1.06.78 4.33 4.33 0 0 1 -3 0 2.73 2.73 0 0 1 -1.07-.78 3.26 3.26 0 0 1 -.64-1.21 5.45 5.45 0 0 1 -.21-1.56 4.91 4.91 0 0 1 .38-2 2.91 2.91 0 0 1 1.18-1.32 3.65 3.65 0 0 1 1.93-.47 3.57 3.57 0 0 1 1.88.47 3 3 0 0 1 1.14 1.32 4.81 4.81 0 0 1 .34 2.01zm-5.77 0a4.33 4.33 0 0 0 .25 1.56 2.13 2.13 0 0 0 .77 1 2.62 2.62 0 0 0 2.65 0 2.05 2.05 0 0 0 .76-1 4.57 4.57 0 0 0 .24-1.56 3.57 3.57 0 0 0 -.55-2.13 2 2 0 0 0 -1.76-.77 2.27 2.27 0 0 0 -1.33.35 2 2 0 0 0 -.78 1 4.23 4.23 0 0 0 -.25 1.55z"/><path d="m98.12 54.21-2.31-6.36v.54s0 .45 0 .7 0 .51 0 .76v4.36h-.91v-7.39h1.49l2.19 6 2.24-6h1.48v7.39h-1v-4.43c0-.22 0-.45 0-.69v-.69q0-.33 0-.54l-2.3 6.35z"/><path d="m106.36 46.82a3.18 3.18 0 0 1 2.1.57 2 2 0 0 1 .66 1.62 2.44 2.44 0 0 1 -.16.9 1.88 1.88 0 0 1 -.49.76 2.31 2.31 0 0 1 -.9.51 4.13 4.13 0 0 1 -1.36.19h-.85v2.84h-1v-7.39zm-.08.87h-.92v2.81h.74a3.32 3.32 0 0 0 1.07-.15 1.24 1.24 0 0 0 .66-.46 1.42 1.42 0 0 0 .22-.84 1.23 1.23 0 0 0 -.43-1 2.18 2.18 0 0 0 -1.34-.36z"/><path d="m115.24 54.21-.82-2.2h-2.9l-.81 2.2h-1.07l2.82-7.42h1.06l2.81 7.42zm-1.11-3.1-.77-2.18a3.12 3.12 0 0 1 -.11-.33l-.15-.46-.12-.4a4.16 4.16 0 0 1 -.12.44c0 .15-.08.3-.12.43s-.08.24-.11.32l-.79 2.18z"/><path d="m123.31 54.21h-1.25l-3.82-6.06q0 .27 0 .6v.68.72 4.06h-1v-7.39h1.23l3.82 6c0-.15 0-.34 0-.56s0-.45 0-.69 0-.48 0-.7v-4.05h1z"/><path d="m127.28 50.36 1.86-3.54h1.11l-2.46 4.52v2.87h-1v-2.83l-2.47-4.56h1.14z"/></g></svg>